<mxfile host="app.diagrams.net" agent="Mozilla/5.0 (Windows NT 10.0; Win64; x64) AppleWebKit/537.36 (KHTML, like Gecko) Chrome/136.0.0.0 Safari/537.36" version="26.3.0">
  <diagram name="Page-1" id="AAHxzuMwp1ytZRvAJxFF">
    <mxGraphModel grid="1" page="1" gridSize="10" guides="1" tooltips="1" connect="1" arrows="1" fold="1" pageScale="1" pageWidth="850" pageHeight="1100" math="0" shadow="0">
      <root>
        <mxCell id="0" />
        <mxCell id="1" parent="0" />
        <mxCell id="mFqXMM7ZUw6CE7v1p2I_-44" value="&lt;div&gt;&lt;div&gt;&lt;span style=&quot;font-size: 14px;&quot;&gt;&lt;b&gt;REST API Python&lt;/b&gt;&lt;/span&gt;&lt;/div&gt;&lt;div&gt;&lt;span style=&quot;font-size: 14px;&quot;&gt;&lt;b&gt;&lt;br&gt;&lt;/b&gt;&lt;/span&gt;&lt;/div&gt;&lt;div&gt;&lt;span style=&quot;font-size: 14px;&quot;&gt;&lt;b&gt;&lt;br&gt;&lt;/b&gt;&lt;/span&gt;&lt;/div&gt;&lt;div&gt;&lt;br&gt;&lt;/div&gt;&lt;div&gt;&lt;br&gt;&lt;div&gt;&lt;br&gt;&lt;/div&gt;&lt;div&gt;&lt;br&gt;&lt;/div&gt;&lt;div&gt;&lt;br&gt;&lt;div&gt;&lt;br&gt;&lt;/div&gt;&lt;div&gt;&lt;br&gt;&lt;/div&gt;&lt;div&gt;&lt;br&gt;&lt;/div&gt;&lt;div&gt;&lt;br&gt;&lt;/div&gt;&lt;div&gt;&lt;br&gt;&lt;/div&gt;&lt;div&gt;&lt;br&gt;&lt;/div&gt;&lt;div&gt;&lt;br&gt;&lt;/div&gt;&lt;div&gt;&lt;br&gt;&lt;/div&gt;&lt;div&gt;&lt;br&gt;&lt;/div&gt;&lt;div&gt;&lt;br&gt;&lt;/div&gt;&lt;div&gt;&lt;br&gt;&lt;/div&gt;&lt;div&gt;&lt;br&gt;&lt;/div&gt;&lt;div&gt;&lt;br&gt;&lt;/div&gt;&lt;div&gt;&lt;br&gt;&lt;/div&gt;&lt;div&gt;&lt;br&gt;&lt;/div&gt;&lt;div&gt;&lt;br&gt;&lt;/div&gt;&lt;div&gt;&lt;br&gt;&lt;/div&gt;&lt;div&gt;&lt;br&gt;&lt;/div&gt;&lt;div&gt;&lt;br&gt;&lt;/div&gt;&lt;div&gt;&lt;br&gt;&lt;/div&gt;&lt;div&gt;&lt;br&gt;&lt;/div&gt;&lt;div&gt;&lt;br&gt;&lt;/div&gt;&lt;div&gt;&lt;br&gt;&lt;/div&gt;&lt;div&gt;&lt;br&gt;&lt;/div&gt;&lt;/div&gt;&lt;/div&gt;&lt;/div&gt;&lt;div&gt;&lt;br&gt;&lt;/div&gt;&lt;div&gt;&lt;br&gt;&lt;/div&gt;&lt;div&gt;&lt;br&gt;&lt;/div&gt;&lt;div&gt;&lt;br&gt;&lt;/div&gt;&lt;div&gt;&lt;br&gt;&lt;/div&gt;&lt;div&gt;&lt;br&gt;&lt;/div&gt;&lt;div&gt;&lt;br&gt;&lt;/div&gt;&lt;div&gt;&lt;br&gt;&lt;/div&gt;&lt;div&gt;&lt;br&gt;&lt;/div&gt;&lt;div&gt;&lt;br&gt;&lt;/div&gt;&lt;div&gt;&lt;br&gt;&lt;/div&gt;" style="rounded=1;whiteSpace=wrap;html=1;" vertex="1" parent="1">
          <mxGeometry x="655" y="100" width="330" height="650" as="geometry" />
        </mxCell>
        <mxCell id="mFqXMM7ZUw6CE7v1p2I_-2" value="&lt;b&gt;&lt;font style=&quot;font-size: 14px;&quot;&gt;Protheus Domain&lt;/font&gt;&lt;/b&gt;&lt;div&gt;&lt;br&gt;&lt;/div&gt;&lt;div&gt;&lt;br&gt;&lt;div&gt;&lt;br&gt;&lt;/div&gt;&lt;div&gt;&lt;br&gt;&lt;/div&gt;&lt;div&gt;&lt;br&gt;&lt;div&gt;&lt;br&gt;&lt;/div&gt;&lt;div&gt;&lt;br&gt;&lt;/div&gt;&lt;div&gt;&lt;br&gt;&lt;div&gt;&lt;br&gt;&lt;/div&gt;&lt;div&gt;&lt;br&gt;&lt;/div&gt;&lt;div&gt;&lt;br&gt;&lt;/div&gt;&lt;div&gt;&lt;br&gt;&lt;/div&gt;&lt;div&gt;&lt;br&gt;&lt;/div&gt;&lt;div&gt;&lt;br&gt;&lt;/div&gt;&lt;div&gt;&lt;br&gt;&lt;/div&gt;&lt;div&gt;&lt;br&gt;&lt;/div&gt;&lt;div&gt;&lt;br&gt;&lt;/div&gt;&lt;div&gt;&lt;br&gt;&lt;/div&gt;&lt;div&gt;&lt;br&gt;&lt;/div&gt;&lt;div&gt;&lt;br&gt;&lt;/div&gt;&lt;div&gt;&lt;br&gt;&lt;/div&gt;&lt;div&gt;&lt;br&gt;&lt;/div&gt;&lt;div&gt;&lt;br&gt;&lt;/div&gt;&lt;div&gt;&lt;br&gt;&lt;/div&gt;&lt;div&gt;&lt;br&gt;&lt;/div&gt;&lt;div&gt;&lt;br&gt;&lt;/div&gt;&lt;div&gt;&lt;br&gt;&lt;/div&gt;&lt;div&gt;&lt;br&gt;&lt;/div&gt;&lt;div&gt;&lt;br&gt;&lt;/div&gt;&lt;div&gt;&lt;br&gt;&lt;/div&gt;&lt;div&gt;&lt;br&gt;&lt;/div&gt;&lt;div&gt;&lt;br&gt;&lt;/div&gt;&lt;/div&gt;&lt;/div&gt;&lt;/div&gt;&lt;div&gt;&lt;br&gt;&lt;/div&gt;&lt;div&gt;&lt;br&gt;&lt;/div&gt;&lt;div&gt;&lt;br&gt;&lt;/div&gt;&lt;div&gt;&lt;br&gt;&lt;/div&gt;&lt;div&gt;&lt;br&gt;&lt;/div&gt;&lt;div&gt;&lt;br&gt;&lt;/div&gt;&lt;div&gt;&lt;br&gt;&lt;/div&gt;&lt;div&gt;&lt;br&gt;&lt;/div&gt;&lt;div&gt;&lt;br&gt;&lt;/div&gt;&lt;div&gt;&lt;br&gt;&lt;/div&gt;&lt;div&gt;&lt;br&gt;&lt;/div&gt;" style="rounded=1;whiteSpace=wrap;html=1;" vertex="1" parent="1">
          <mxGeometry x="270" y="100" width="330" height="650" as="geometry" />
        </mxCell>
        <mxCell id="mFqXMM7ZUw6CE7v1p2I_-48" style="edgeStyle=orthogonalEdgeStyle;rounded=0;orthogonalLoop=1;jettySize=auto;html=1;flowAnimation=1;" edge="1" parent="1" source="mFqXMM7ZUw6CE7v1p2I_-22" target="mFqXMM7ZUw6CE7v1p2I_-47">
          <mxGeometry relative="1" as="geometry" />
        </mxCell>
        <mxCell id="mFqXMM7ZUw6CE7v1p2I_-112" value="/POST&amp;nbsp;&lt;div&gt;data&lt;/div&gt;" style="edgeLabel;html=1;align=center;verticalAlign=middle;resizable=0;points=[];" connectable="0" vertex="1" parent="mFqXMM7ZUw6CE7v1p2I_-48">
          <mxGeometry x="0.1323" relative="1" as="geometry">
            <mxPoint x="-7" y="-18" as="offset" />
          </mxGeometry>
        </mxCell>
        <mxCell id="mFqXMM7ZUw6CE7v1p2I_-22" value="&lt;div&gt;Cadastros, Atualizações e Exclusões&lt;/div&gt;&lt;div&gt;&lt;br&gt;&lt;/div&gt;&lt;div&gt;&lt;br&gt;&lt;/div&gt;&lt;div&gt;&lt;br&gt;&lt;/div&gt;&lt;div&gt;&lt;br&gt;&lt;/div&gt;&lt;div&gt;&lt;br&gt;&lt;/div&gt;&lt;div&gt;&lt;br&gt;&lt;/div&gt;&lt;div&gt;&lt;br&gt;&lt;/div&gt;&lt;div&gt;&lt;br&gt;&lt;/div&gt;&lt;div&gt;&lt;br&gt;&lt;/div&gt;&lt;div&gt;&lt;br&gt;&lt;/div&gt;&lt;div&gt;&lt;br&gt;&lt;/div&gt;&lt;div&gt;&lt;br&gt;&lt;/div&gt;&lt;div&gt;&lt;br&gt;&lt;/div&gt;&lt;div&gt;&lt;br&gt;&lt;/div&gt;" style="rounded=0;whiteSpace=wrap;html=1;dashed=1;" vertex="1" parent="1">
          <mxGeometry x="280" y="140" width="310" height="230" as="geometry" />
        </mxCell>
        <mxCell id="mFqXMM7ZUw6CE7v1p2I_-16" value="" style="edgeStyle=orthogonalEdgeStyle;rounded=0;orthogonalLoop=1;jettySize=auto;html=1;" edge="1" parent="1" source="mFqXMM7ZUw6CE7v1p2I_-8" target="mFqXMM7ZUw6CE7v1p2I_-15">
          <mxGeometry relative="1" as="geometry" />
        </mxCell>
        <mxCell id="mFqXMM7ZUw6CE7v1p2I_-8" value="saveOrUpdate&lt;br&gt;&lt;div&gt;Cliente()&lt;/div&gt;" style="shape=process;whiteSpace=wrap;html=1;backgroundOutline=1;" vertex="1" parent="1">
          <mxGeometry x="312" y="180" width="110" height="40" as="geometry" />
        </mxCell>
        <mxCell id="mFqXMM7ZUw6CE7v1p2I_-10" style="edgeStyle=orthogonalEdgeStyle;rounded=0;orthogonalLoop=1;jettySize=auto;html=1;entryX=0;entryY=0.5;entryDx=0;entryDy=0;flowAnimation=1;" edge="1" parent="1" source="mFqXMM7ZUw6CE7v1p2I_-9" target="mFqXMM7ZUw6CE7v1p2I_-8">
          <mxGeometry relative="1" as="geometry" />
        </mxCell>
        <mxCell id="mFqXMM7ZUw6CE7v1p2I_-12" style="edgeStyle=orthogonalEdgeStyle;rounded=0;orthogonalLoop=1;jettySize=auto;html=1;entryX=0;entryY=0.5;entryDx=0;entryDy=0;flowAnimation=1;" edge="1" parent="1" source="mFqXMM7ZUw6CE7v1p2I_-9" target="mFqXMM7ZUw6CE7v1p2I_-11">
          <mxGeometry relative="1" as="geometry" />
        </mxCell>
        <mxCell id="mFqXMM7ZUw6CE7v1p2I_-17" style="edgeStyle=orthogonalEdgeStyle;rounded=0;orthogonalLoop=1;jettySize=auto;html=1;entryX=0;entryY=0.5;entryDx=0;entryDy=0;flowAnimation=1;" edge="1" parent="1" source="mFqXMM7ZUw6CE7v1p2I_-9" target="mFqXMM7ZUw6CE7v1p2I_-13">
          <mxGeometry relative="1" as="geometry" />
        </mxCell>
        <mxCell id="mFqXMM7ZUw6CE7v1p2I_-9" value="Ator" style="shape=umlActor;verticalLabelPosition=bottom;verticalAlign=top;html=1;outlineConnect=0;" vertex="1" parent="1">
          <mxGeometry x="140" y="240" width="30" height="60" as="geometry" />
        </mxCell>
        <mxCell id="mFqXMM7ZUw6CE7v1p2I_-19" value="" style="edgeStyle=orthogonalEdgeStyle;rounded=0;orthogonalLoop=1;jettySize=auto;html=1;" edge="1" parent="1" source="mFqXMM7ZUw6CE7v1p2I_-11" target="mFqXMM7ZUw6CE7v1p2I_-18">
          <mxGeometry relative="1" as="geometry" />
        </mxCell>
        <mxCell id="mFqXMM7ZUw6CE7v1p2I_-11" value="saveOrUpdate&lt;br&gt;&lt;div&gt;Produto()&lt;/div&gt;" style="shape=process;whiteSpace=wrap;html=1;backgroundOutline=1;" vertex="1" parent="1">
          <mxGeometry x="312" y="250" width="110" height="40" as="geometry" />
        </mxCell>
        <mxCell id="mFqXMM7ZUw6CE7v1p2I_-21" value="" style="edgeStyle=orthogonalEdgeStyle;rounded=0;orthogonalLoop=1;jettySize=auto;html=1;" edge="1" parent="1" source="mFqXMM7ZUw6CE7v1p2I_-13" target="mFqXMM7ZUw6CE7v1p2I_-20">
          <mxGeometry relative="1" as="geometry" />
        </mxCell>
        <mxCell id="mFqXMM7ZUw6CE7v1p2I_-13" value="saveOrUpdate&lt;br&gt;&lt;div&gt;Preco()&lt;/div&gt;" style="shape=process;whiteSpace=wrap;html=1;backgroundOutline=1;" vertex="1" parent="1">
          <mxGeometry x="312" y="310" width="110" height="40" as="geometry" />
        </mxCell>
        <mxCell id="mFqXMM7ZUw6CE7v1p2I_-15" value="callBack&lt;div&gt;Producer()&lt;/div&gt;" style="shape=process;whiteSpace=wrap;html=1;backgroundOutline=1;" vertex="1" parent="1">
          <mxGeometry x="442" y="180" width="110" height="40" as="geometry" />
        </mxCell>
        <mxCell id="mFqXMM7ZUw6CE7v1p2I_-18" value="callBack&lt;div&gt;Producer()&lt;/div&gt;" style="shape=process;whiteSpace=wrap;html=1;backgroundOutline=1;" vertex="1" parent="1">
          <mxGeometry x="442" y="250" width="110" height="40" as="geometry" />
        </mxCell>
        <mxCell id="mFqXMM7ZUw6CE7v1p2I_-20" value="callBack&lt;div&gt;Producer()&lt;/div&gt;" style="shape=process;whiteSpace=wrap;html=1;backgroundOutline=1;" vertex="1" parent="1">
          <mxGeometry x="442" y="310" width="110" height="40" as="geometry" />
        </mxCell>
        <mxCell id="mFqXMM7ZUw6CE7v1p2I_-58" style="edgeStyle=orthogonalEdgeStyle;rounded=0;orthogonalLoop=1;jettySize=auto;html=1;startArrow=classic;startFill=0;endArrow=none;flowAnimation=1;" edge="1" parent="1" source="mFqXMM7ZUw6CE7v1p2I_-23" target="mFqXMM7ZUw6CE7v1p2I_-53">
          <mxGeometry relative="1" as="geometry" />
        </mxCell>
        <mxCell id="mFqXMM7ZUw6CE7v1p2I_-23" value="&lt;div&gt;Cadastros, Atualizações e Exclusões&lt;/div&gt;&lt;div&gt;&lt;br&gt;&lt;/div&gt;&lt;div&gt;&lt;br&gt;&lt;/div&gt;&lt;div&gt;&lt;br&gt;&lt;/div&gt;&lt;div&gt;&lt;br&gt;&lt;/div&gt;&lt;div&gt;&lt;br&gt;&lt;/div&gt;&lt;div&gt;&lt;br&gt;&lt;/div&gt;&lt;div&gt;&lt;br&gt;&lt;/div&gt;&lt;div&gt;&lt;br&gt;&lt;/div&gt;&lt;div&gt;&lt;br&gt;&lt;/div&gt;&lt;div&gt;&lt;br&gt;&lt;/div&gt;&lt;div&gt;&lt;br&gt;&lt;/div&gt;&lt;div&gt;&lt;br&gt;&lt;/div&gt;&lt;div&gt;&lt;br&gt;&lt;/div&gt;&lt;div&gt;&lt;br&gt;&lt;/div&gt;" style="rounded=0;whiteSpace=wrap;html=1;dashed=1;" vertex="1" parent="1">
          <mxGeometry x="280" y="470" width="310" height="230" as="geometry" />
        </mxCell>
        <mxCell id="mFqXMM7ZUw6CE7v1p2I_-25" value="saveOrUpdate&lt;br&gt;&lt;div&gt;Cliente()&lt;/div&gt;" style="shape=process;whiteSpace=wrap;html=1;backgroundOutline=1;" vertex="1" parent="1">
          <mxGeometry x="312" y="510" width="110" height="40" as="geometry" />
        </mxCell>
        <mxCell id="mFqXMM7ZUw6CE7v1p2I_-27" value="saveOrUpdate&lt;br&gt;&lt;div&gt;Produto()&lt;/div&gt;" style="shape=process;whiteSpace=wrap;html=1;backgroundOutline=1;" vertex="1" parent="1">
          <mxGeometry x="312" y="580" width="110" height="40" as="geometry" />
        </mxCell>
        <mxCell id="mFqXMM7ZUw6CE7v1p2I_-29" value="saveOrUpdate&lt;br&gt;&lt;div&gt;Preco()&lt;/div&gt;" style="shape=process;whiteSpace=wrap;html=1;backgroundOutline=1;" vertex="1" parent="1">
          <mxGeometry x="312" y="640" width="110" height="40" as="geometry" />
        </mxCell>
        <mxCell id="mFqXMM7ZUw6CE7v1p2I_-41" value="" style="edgeStyle=orthogonalEdgeStyle;rounded=0;orthogonalLoop=1;jettySize=auto;html=1;" edge="1" parent="1" source="mFqXMM7ZUw6CE7v1p2I_-30" target="mFqXMM7ZUw6CE7v1p2I_-25">
          <mxGeometry relative="1" as="geometry" />
        </mxCell>
        <mxCell id="mFqXMM7ZUw6CE7v1p2I_-30" value="Consumer()" style="shape=process;whiteSpace=wrap;html=1;backgroundOutline=1;" vertex="1" parent="1">
          <mxGeometry x="442" y="510" width="110" height="40" as="geometry" />
        </mxCell>
        <mxCell id="mFqXMM7ZUw6CE7v1p2I_-42" value="" style="edgeStyle=orthogonalEdgeStyle;rounded=0;orthogonalLoop=1;jettySize=auto;html=1;" edge="1" parent="1" source="mFqXMM7ZUw6CE7v1p2I_-31" target="mFqXMM7ZUw6CE7v1p2I_-27">
          <mxGeometry relative="1" as="geometry" />
        </mxCell>
        <mxCell id="mFqXMM7ZUw6CE7v1p2I_-31" value="Consumer()" style="shape=process;whiteSpace=wrap;html=1;backgroundOutline=1;" vertex="1" parent="1">
          <mxGeometry x="442" y="580" width="110" height="40" as="geometry" />
        </mxCell>
        <mxCell id="mFqXMM7ZUw6CE7v1p2I_-43" value="" style="edgeStyle=orthogonalEdgeStyle;rounded=0;orthogonalLoop=1;jettySize=auto;html=1;" edge="1" parent="1" source="mFqXMM7ZUw6CE7v1p2I_-32" target="mFqXMM7ZUw6CE7v1p2I_-29">
          <mxGeometry relative="1" as="geometry" />
        </mxCell>
        <mxCell id="mFqXMM7ZUw6CE7v1p2I_-32" value="Consumer()" style="shape=process;whiteSpace=wrap;html=1;backgroundOutline=1;" vertex="1" parent="1">
          <mxGeometry x="442" y="640" width="110" height="40" as="geometry" />
        </mxCell>
        <mxCell id="mFqXMM7ZUw6CE7v1p2I_-36" style="edgeStyle=orthogonalEdgeStyle;rounded=0;orthogonalLoop=1;jettySize=auto;html=1;entryX=0.5;entryY=1;entryDx=0;entryDy=0;startArrow=classic;startFill=0;endArrow=none;" edge="1" parent="1" source="mFqXMM7ZUw6CE7v1p2I_-33" target="mFqXMM7ZUw6CE7v1p2I_-22">
          <mxGeometry relative="1" as="geometry" />
        </mxCell>
        <mxCell id="mFqXMM7ZUw6CE7v1p2I_-38" value="Atualiza Base" style="edgeLabel;html=1;align=center;verticalAlign=middle;resizable=0;points=[];fontSize=9;" connectable="0" vertex="1" parent="mFqXMM7ZUw6CE7v1p2I_-36">
          <mxGeometry x="0.5325" y="1" relative="1" as="geometry">
            <mxPoint x="31" y="-3" as="offset" />
          </mxGeometry>
        </mxCell>
        <mxCell id="mFqXMM7ZUw6CE7v1p2I_-39" style="edgeStyle=orthogonalEdgeStyle;rounded=0;orthogonalLoop=1;jettySize=auto;html=1;entryX=0.5;entryY=0;entryDx=0;entryDy=0;startArrow=classic;startFill=0;endArrow=none;" edge="1" parent="1" source="mFqXMM7ZUw6CE7v1p2I_-33" target="mFqXMM7ZUw6CE7v1p2I_-23">
          <mxGeometry relative="1" as="geometry" />
        </mxCell>
        <mxCell id="mFqXMM7ZUw6CE7v1p2I_-33" value="" style="image;aspect=fixed;perimeter=ellipsePerimeter;html=1;align=center;shadow=0;dashed=0;spacingTop=3;image=img/lib/active_directory/database.svg;" vertex="1" parent="1">
          <mxGeometry x="410" y="402" width="50" height="37" as="geometry" />
        </mxCell>
        <mxCell id="mFqXMM7ZUw6CE7v1p2I_-40" value="Atualiza Base" style="edgeLabel;html=1;align=center;verticalAlign=middle;resizable=0;points=[];fontSize=9;" connectable="0" vertex="1" parent="1">
          <mxGeometry x="465" y="463" as="geometry" />
        </mxCell>
        <mxCell id="mFqXMM7ZUw6CE7v1p2I_-47" value="&lt;div&gt;Recebe Dados&lt;/div&gt;&lt;div&gt;&lt;br&gt;&lt;/div&gt;&lt;div&gt;&lt;br&gt;&lt;/div&gt;&lt;div&gt;&lt;br&gt;&lt;/div&gt;&lt;div&gt;&lt;br&gt;&lt;/div&gt;&lt;div&gt;&lt;br&gt;&lt;/div&gt;&lt;div&gt;&lt;br&gt;&lt;/div&gt;&lt;div&gt;&lt;br&gt;&lt;/div&gt;&lt;div&gt;&lt;br&gt;&lt;/div&gt;&lt;div&gt;&lt;br&gt;&lt;/div&gt;&lt;div&gt;&lt;br&gt;&lt;/div&gt;&lt;div&gt;&lt;br&gt;&lt;/div&gt;&lt;div&gt;&lt;br&gt;&lt;/div&gt;&lt;div&gt;&lt;br&gt;&lt;/div&gt;&lt;div&gt;&lt;br&gt;&lt;/div&gt;" style="rounded=0;whiteSpace=wrap;html=1;dashed=1;" vertex="1" parent="1">
          <mxGeometry x="671" y="140" width="119" height="230" as="geometry" />
        </mxCell>
        <mxCell id="mFqXMM7ZUw6CE7v1p2I_-50" style="edgeStyle=orthogonalEdgeStyle;rounded=0;orthogonalLoop=1;jettySize=auto;html=1;startArrow=classic;startFill=0;endArrow=none;" edge="1" parent="1" source="mFqXMM7ZUw6CE7v1p2I_-49" target="mFqXMM7ZUw6CE7v1p2I_-47">
          <mxGeometry relative="1" as="geometry" />
        </mxCell>
        <mxCell id="mFqXMM7ZUw6CE7v1p2I_-49" value="&lt;div&gt;Envia Dados&lt;/div&gt;&lt;div&gt;&lt;br&gt;&lt;/div&gt;&lt;div&gt;&lt;br&gt;&lt;/div&gt;&lt;div&gt;&lt;br&gt;&lt;/div&gt;&lt;div&gt;&lt;br&gt;&lt;/div&gt;&lt;div&gt;&lt;br&gt;&lt;/div&gt;&lt;div&gt;&lt;br&gt;&lt;/div&gt;&lt;div&gt;&lt;br&gt;&lt;/div&gt;&lt;div&gt;&lt;br&gt;&lt;/div&gt;&lt;div&gt;&lt;br&gt;&lt;/div&gt;&lt;div&gt;&lt;br&gt;&lt;/div&gt;&lt;div&gt;&lt;br&gt;&lt;/div&gt;&lt;div&gt;&lt;br&gt;&lt;/div&gt;&lt;div&gt;&lt;br&gt;&lt;/div&gt;&lt;div&gt;&lt;br&gt;&lt;/div&gt;" style="rounded=0;whiteSpace=wrap;html=1;dashed=1;" vertex="1" parent="1">
          <mxGeometry x="841" y="140" width="119" height="230" as="geometry" />
        </mxCell>
        <mxCell id="mFqXMM7ZUw6CE7v1p2I_-51" value="Processa&lt;br&gt;Recebimento" style="shape=process;whiteSpace=wrap;html=1;backgroundOutline=1;" vertex="1" parent="1">
          <mxGeometry x="685" y="230" width="90" height="50" as="geometry" />
        </mxCell>
        <mxCell id="mFqXMM7ZUw6CE7v1p2I_-52" value="Processa&lt;br&gt;Envio" style="shape=process;whiteSpace=wrap;html=1;backgroundOutline=1;" vertex="1" parent="1">
          <mxGeometry x="855" y="230" width="90" height="50" as="geometry" />
        </mxCell>
        <mxCell id="mFqXMM7ZUw6CE7v1p2I_-53" value="&lt;div&gt;Envia Dados&lt;/div&gt;&lt;div&gt;&lt;br&gt;&lt;/div&gt;&lt;div&gt;&lt;br&gt;&lt;/div&gt;&lt;div&gt;&lt;br&gt;&lt;/div&gt;&lt;div&gt;&lt;br&gt;&lt;/div&gt;&lt;div&gt;&lt;br&gt;&lt;/div&gt;&lt;div&gt;&lt;br&gt;&lt;/div&gt;&lt;div&gt;&lt;br&gt;&lt;/div&gt;&lt;div&gt;&lt;br&gt;&lt;/div&gt;&lt;div&gt;&lt;br&gt;&lt;/div&gt;&lt;div&gt;&lt;br&gt;&lt;/div&gt;&lt;div&gt;&lt;br&gt;&lt;/div&gt;&lt;div&gt;&lt;br&gt;&lt;/div&gt;&lt;div&gt;&lt;br&gt;&lt;/div&gt;&lt;div&gt;&lt;br&gt;&lt;/div&gt;" style="rounded=0;whiteSpace=wrap;html=1;dashed=1;" vertex="1" parent="1">
          <mxGeometry x="671" y="470" width="119" height="230" as="geometry" />
        </mxCell>
        <mxCell id="mFqXMM7ZUw6CE7v1p2I_-54" style="edgeStyle=orthogonalEdgeStyle;rounded=0;orthogonalLoop=1;jettySize=auto;html=1;startArrow=none;startFill=0;endArrow=classic;endFill=1;" edge="1" parent="1" source="mFqXMM7ZUw6CE7v1p2I_-55" target="mFqXMM7ZUw6CE7v1p2I_-53">
          <mxGeometry relative="1" as="geometry" />
        </mxCell>
        <mxCell id="mFqXMM7ZUw6CE7v1p2I_-55" value="&lt;div&gt;Recebe Dados&lt;/div&gt;&lt;div&gt;&lt;br&gt;&lt;/div&gt;&lt;div&gt;&lt;br&gt;&lt;/div&gt;&lt;div&gt;&lt;br&gt;&lt;/div&gt;&lt;div&gt;&lt;br&gt;&lt;/div&gt;&lt;div&gt;&lt;br&gt;&lt;/div&gt;&lt;div&gt;&lt;br&gt;&lt;/div&gt;&lt;div&gt;&lt;br&gt;&lt;/div&gt;&lt;div&gt;&lt;br&gt;&lt;/div&gt;&lt;div&gt;&lt;br&gt;&lt;/div&gt;&lt;div&gt;&lt;br&gt;&lt;/div&gt;&lt;div&gt;&lt;br&gt;&lt;/div&gt;&lt;div&gt;&lt;br&gt;&lt;/div&gt;&lt;div&gt;&lt;br&gt;&lt;/div&gt;&lt;div&gt;&lt;br&gt;&lt;/div&gt;" style="rounded=0;whiteSpace=wrap;html=1;dashed=1;" vertex="1" parent="1">
          <mxGeometry x="841" y="470" width="119" height="230" as="geometry" />
        </mxCell>
        <mxCell id="mFqXMM7ZUw6CE7v1p2I_-56" value="Processa&lt;br&gt;Recebimento" style="shape=process;whiteSpace=wrap;html=1;backgroundOutline=1;" vertex="1" parent="1">
          <mxGeometry x="685" y="557" width="90" height="50" as="geometry" />
        </mxCell>
        <mxCell id="mFqXMM7ZUw6CE7v1p2I_-57" value="Processa&lt;br&gt;Envio" style="shape=process;whiteSpace=wrap;html=1;backgroundOutline=1;" vertex="1" parent="1">
          <mxGeometry x="855" y="557" width="90" height="50" as="geometry" />
        </mxCell>
        <mxCell id="mFqXMM7ZUw6CE7v1p2I_-59" value="&lt;b&gt;&lt;font style=&quot;font-size: 14px;&quot;&gt;Sales Force Domain&lt;/font&gt;&lt;/b&gt;&lt;div&gt;&lt;br&gt;&lt;/div&gt;&lt;div&gt;&lt;br&gt;&lt;div&gt;&lt;br&gt;&lt;/div&gt;&lt;div&gt;&lt;br&gt;&lt;/div&gt;&lt;div&gt;&lt;br&gt;&lt;div&gt;&lt;br&gt;&lt;/div&gt;&lt;div&gt;&lt;br&gt;&lt;/div&gt;&lt;div&gt;&lt;br&gt;&lt;div&gt;&lt;br&gt;&lt;/div&gt;&lt;div&gt;&lt;br&gt;&lt;/div&gt;&lt;div&gt;&lt;br&gt;&lt;/div&gt;&lt;div&gt;&lt;br&gt;&lt;/div&gt;&lt;div&gt;&lt;br&gt;&lt;/div&gt;&lt;div&gt;&lt;br&gt;&lt;/div&gt;&lt;div&gt;&lt;br&gt;&lt;/div&gt;&lt;div&gt;&lt;br&gt;&lt;/div&gt;&lt;div&gt;&lt;br&gt;&lt;/div&gt;&lt;div&gt;&lt;br&gt;&lt;/div&gt;&lt;div&gt;&lt;br&gt;&lt;/div&gt;&lt;div&gt;&lt;br&gt;&lt;/div&gt;&lt;div&gt;&lt;br&gt;&lt;/div&gt;&lt;div&gt;&lt;br&gt;&lt;/div&gt;&lt;div&gt;&lt;br&gt;&lt;/div&gt;&lt;div&gt;&lt;br&gt;&lt;/div&gt;&lt;div&gt;&lt;br&gt;&lt;/div&gt;&lt;div&gt;&lt;br&gt;&lt;/div&gt;&lt;div&gt;&lt;br&gt;&lt;/div&gt;&lt;div&gt;&lt;br&gt;&lt;/div&gt;&lt;div&gt;&lt;br&gt;&lt;/div&gt;&lt;div&gt;&lt;br&gt;&lt;/div&gt;&lt;div&gt;&lt;br&gt;&lt;/div&gt;&lt;div&gt;&lt;br&gt;&lt;/div&gt;&lt;/div&gt;&lt;/div&gt;&lt;/div&gt;&lt;div&gt;&lt;br&gt;&lt;/div&gt;&lt;div&gt;&lt;br&gt;&lt;/div&gt;&lt;div&gt;&lt;br&gt;&lt;/div&gt;&lt;div&gt;&lt;br&gt;&lt;/div&gt;&lt;div&gt;&lt;br&gt;&lt;/div&gt;&lt;div&gt;&lt;br&gt;&lt;/div&gt;&lt;div&gt;&lt;br&gt;&lt;/div&gt;&lt;div&gt;&lt;br&gt;&lt;/div&gt;&lt;div&gt;&lt;br&gt;&lt;/div&gt;&lt;div&gt;&lt;br&gt;&lt;/div&gt;&lt;div&gt;&lt;br&gt;&lt;/div&gt;" style="rounded=1;whiteSpace=wrap;html=1;" vertex="1" parent="1">
          <mxGeometry x="1060" y="100" width="330" height="650" as="geometry" />
        </mxCell>
        <mxCell id="mFqXMM7ZUw6CE7v1p2I_-86" style="edgeStyle=orthogonalEdgeStyle;rounded=0;orthogonalLoop=1;jettySize=auto;html=1;entryX=1;entryY=0.5;entryDx=0;entryDy=0;flowAnimation=1;startArrow=classic;startFill=0;endArrow=none;" edge="1" parent="1" source="mFqXMM7ZUw6CE7v1p2I_-60" target="mFqXMM7ZUw6CE7v1p2I_-49">
          <mxGeometry relative="1" as="geometry" />
        </mxCell>
        <mxCell id="mFqXMM7ZUw6CE7v1p2I_-60" value="&lt;div&gt;Cadastros, Atualizações e Exclusões&lt;/div&gt;&lt;div&gt;&lt;br&gt;&lt;/div&gt;&lt;div&gt;&lt;br&gt;&lt;/div&gt;&lt;div&gt;&lt;br&gt;&lt;/div&gt;&lt;div&gt;&lt;br&gt;&lt;/div&gt;&lt;div&gt;&lt;br&gt;&lt;/div&gt;&lt;div&gt;&lt;br&gt;&lt;/div&gt;&lt;div&gt;&lt;br&gt;&lt;/div&gt;&lt;div&gt;&lt;br&gt;&lt;/div&gt;&lt;div&gt;&lt;br&gt;&lt;/div&gt;&lt;div&gt;&lt;br&gt;&lt;/div&gt;&lt;div&gt;&lt;br&gt;&lt;/div&gt;&lt;div&gt;&lt;br&gt;&lt;/div&gt;&lt;div&gt;&lt;br&gt;&lt;/div&gt;&lt;div&gt;&lt;br&gt;&lt;/div&gt;" style="rounded=0;whiteSpace=wrap;html=1;dashed=1;" vertex="1" parent="1">
          <mxGeometry x="1070" y="140" width="310" height="230" as="geometry" />
        </mxCell>
        <mxCell id="mFqXMM7ZUw6CE7v1p2I_-88" value="" style="edgeStyle=orthogonalEdgeStyle;rounded=0;orthogonalLoop=1;jettySize=auto;html=1;startArrow=classic;startFill=0;endArrow=none;" edge="1" parent="1" source="mFqXMM7ZUw6CE7v1p2I_-62" target="mFqXMM7ZUw6CE7v1p2I_-87">
          <mxGeometry relative="1" as="geometry" />
        </mxCell>
        <mxCell id="mFqXMM7ZUw6CE7v1p2I_-62" value="saveOrUpdate&lt;br&gt;&lt;div&gt;Cliente()&lt;/div&gt;" style="shape=process;whiteSpace=wrap;html=1;backgroundOutline=1;" vertex="1" parent="1">
          <mxGeometry x="1242" y="180" width="110" height="40" as="geometry" />
        </mxCell>
        <mxCell id="mFqXMM7ZUw6CE7v1p2I_-64" value="saveOrUpdate&lt;br&gt;&lt;div&gt;Produto()&lt;/div&gt;" style="shape=process;whiteSpace=wrap;html=1;backgroundOutline=1;" vertex="1" parent="1">
          <mxGeometry x="1242" y="250" width="110" height="40" as="geometry" />
        </mxCell>
        <mxCell id="mFqXMM7ZUw6CE7v1p2I_-66" value="saveOrUpdate&lt;br&gt;&lt;div&gt;Preco()&lt;/div&gt;" style="shape=process;whiteSpace=wrap;html=1;backgroundOutline=1;" vertex="1" parent="1">
          <mxGeometry x="1242" y="310" width="110" height="40" as="geometry" />
        </mxCell>
        <mxCell id="mFqXMM7ZUw6CE7v1p2I_-99" style="edgeStyle=orthogonalEdgeStyle;rounded=0;orthogonalLoop=1;jettySize=auto;html=1;entryX=1;entryY=0.5;entryDx=0;entryDy=0;flowAnimation=1;" edge="1" parent="1" source="mFqXMM7ZUw6CE7v1p2I_-70" target="mFqXMM7ZUw6CE7v1p2I_-55">
          <mxGeometry relative="1" as="geometry" />
        </mxCell>
        <mxCell id="mFqXMM7ZUw6CE7v1p2I_-70" value="&lt;div&gt;Cadastros, Atualizações e Exclusões&lt;/div&gt;&lt;div&gt;&lt;br&gt;&lt;/div&gt;&lt;div&gt;&lt;br&gt;&lt;/div&gt;&lt;div&gt;&lt;br&gt;&lt;/div&gt;&lt;div&gt;&lt;br&gt;&lt;/div&gt;&lt;div&gt;&lt;br&gt;&lt;/div&gt;&lt;div&gt;&lt;br&gt;&lt;/div&gt;&lt;div&gt;&lt;br&gt;&lt;/div&gt;&lt;div&gt;&lt;br&gt;&lt;/div&gt;&lt;div&gt;&lt;br&gt;&lt;/div&gt;&lt;div&gt;&lt;br&gt;&lt;/div&gt;&lt;div&gt;&lt;br&gt;&lt;/div&gt;&lt;div&gt;&lt;br&gt;&lt;/div&gt;&lt;div&gt;&lt;br&gt;&lt;/div&gt;&lt;div&gt;&lt;br&gt;&lt;/div&gt;" style="rounded=0;whiteSpace=wrap;html=1;dashed=1;" vertex="1" parent="1">
          <mxGeometry x="1070" y="470" width="310" height="230" as="geometry" />
        </mxCell>
        <mxCell id="mFqXMM7ZUw6CE7v1p2I_-71" value="saveOrUpdate&lt;br&gt;&lt;div&gt;Cliente()&lt;/div&gt;" style="shape=process;whiteSpace=wrap;html=1;backgroundOutline=1;" vertex="1" parent="1">
          <mxGeometry x="1232" y="510" width="110" height="40" as="geometry" />
        </mxCell>
        <mxCell id="mFqXMM7ZUw6CE7v1p2I_-74" value="" style="edgeStyle=orthogonalEdgeStyle;rounded=0;orthogonalLoop=1;jettySize=auto;html=1;startArrow=classic;startFill=0;endArrow=none;" edge="1" parent="1" source="mFqXMM7ZUw6CE7v1p2I_-75" target="mFqXMM7ZUw6CE7v1p2I_-71">
          <mxGeometry relative="1" as="geometry" />
        </mxCell>
        <mxCell id="mFqXMM7ZUw6CE7v1p2I_-75" value="Consumer()" style="shape=process;whiteSpace=wrap;html=1;backgroundOutline=1;" vertex="1" parent="1">
          <mxGeometry x="1102" y="510" width="110" height="40" as="geometry" />
        </mxCell>
        <mxCell id="mFqXMM7ZUw6CE7v1p2I_-80" style="edgeStyle=orthogonalEdgeStyle;rounded=0;orthogonalLoop=1;jettySize=auto;html=1;entryX=0.5;entryY=1;entryDx=0;entryDy=0;startArrow=classic;startFill=0;endArrow=none;" edge="1" parent="1" source="mFqXMM7ZUw6CE7v1p2I_-83" target="mFqXMM7ZUw6CE7v1p2I_-60">
          <mxGeometry relative="1" as="geometry" />
        </mxCell>
        <mxCell id="mFqXMM7ZUw6CE7v1p2I_-81" value="Atualiza Base" style="edgeLabel;html=1;align=center;verticalAlign=middle;resizable=0;points=[];fontSize=9;" connectable="0" vertex="1" parent="mFqXMM7ZUw6CE7v1p2I_-80">
          <mxGeometry x="0.5325" y="1" relative="1" as="geometry">
            <mxPoint x="31" y="-3" as="offset" />
          </mxGeometry>
        </mxCell>
        <mxCell id="mFqXMM7ZUw6CE7v1p2I_-82" style="edgeStyle=orthogonalEdgeStyle;rounded=0;orthogonalLoop=1;jettySize=auto;html=1;entryX=0.5;entryY=0;entryDx=0;entryDy=0;startArrow=classic;startFill=0;endArrow=none;" edge="1" parent="1" source="mFqXMM7ZUw6CE7v1p2I_-83" target="mFqXMM7ZUw6CE7v1p2I_-70">
          <mxGeometry relative="1" as="geometry" />
        </mxCell>
        <mxCell id="mFqXMM7ZUw6CE7v1p2I_-83" value="" style="image;aspect=fixed;perimeter=ellipsePerimeter;html=1;align=center;shadow=0;dashed=0;spacingTop=3;image=img/lib/active_directory/database.svg;" vertex="1" parent="1">
          <mxGeometry x="1200" y="402" width="50" height="37" as="geometry" />
        </mxCell>
        <mxCell id="mFqXMM7ZUw6CE7v1p2I_-84" value="Atualiza Base" style="edgeLabel;html=1;align=center;verticalAlign=middle;resizable=0;points=[];fontSize=9;" connectable="0" vertex="1" parent="1">
          <mxGeometry x="1255" y="463" as="geometry" />
        </mxCell>
        <mxCell id="mFqXMM7ZUw6CE7v1p2I_-87" value="Valida&lt;br&gt;Consumer()" style="shape=process;whiteSpace=wrap;html=1;backgroundOutline=1;" vertex="1" parent="1">
          <mxGeometry x="1092" y="180" width="110" height="40" as="geometry" />
        </mxCell>
        <mxCell id="mFqXMM7ZUw6CE7v1p2I_-90" value="" style="edgeStyle=orthogonalEdgeStyle;rounded=0;orthogonalLoop=1;jettySize=auto;html=1;" edge="1" parent="1" source="mFqXMM7ZUw6CE7v1p2I_-89" target="mFqXMM7ZUw6CE7v1p2I_-64">
          <mxGeometry relative="1" as="geometry" />
        </mxCell>
        <mxCell id="mFqXMM7ZUw6CE7v1p2I_-89" value="Valida&lt;br&gt;Consumer()" style="shape=process;whiteSpace=wrap;html=1;backgroundOutline=1;" vertex="1" parent="1">
          <mxGeometry x="1092" y="250" width="110" height="40" as="geometry" />
        </mxCell>
        <mxCell id="mFqXMM7ZUw6CE7v1p2I_-92" value="" style="edgeStyle=orthogonalEdgeStyle;rounded=0;orthogonalLoop=1;jettySize=auto;html=1;" edge="1" parent="1" source="mFqXMM7ZUw6CE7v1p2I_-91" target="mFqXMM7ZUw6CE7v1p2I_-66">
          <mxGeometry relative="1" as="geometry" />
        </mxCell>
        <mxCell id="mFqXMM7ZUw6CE7v1p2I_-91" value="Valida&lt;br&gt;Consumer()" style="shape=process;whiteSpace=wrap;html=1;backgroundOutline=1;" vertex="1" parent="1">
          <mxGeometry x="1092" y="310" width="110" height="40" as="geometry" />
        </mxCell>
        <mxCell id="mFqXMM7ZUw6CE7v1p2I_-93" value="saveOrUpdate&lt;br&gt;&lt;div&gt;Produto()&lt;/div&gt;" style="shape=process;whiteSpace=wrap;html=1;backgroundOutline=1;" vertex="1" parent="1">
          <mxGeometry x="1232" y="570" width="110" height="40" as="geometry" />
        </mxCell>
        <mxCell id="mFqXMM7ZUw6CE7v1p2I_-94" value="" style="edgeStyle=orthogonalEdgeStyle;rounded=0;orthogonalLoop=1;jettySize=auto;html=1;startArrow=classic;startFill=0;endArrow=none;" edge="1" parent="1" source="mFqXMM7ZUw6CE7v1p2I_-95" target="mFqXMM7ZUw6CE7v1p2I_-93">
          <mxGeometry relative="1" as="geometry" />
        </mxCell>
        <mxCell id="mFqXMM7ZUw6CE7v1p2I_-95" value="Consumer()" style="shape=process;whiteSpace=wrap;html=1;backgroundOutline=1;" vertex="1" parent="1">
          <mxGeometry x="1102" y="570" width="110" height="40" as="geometry" />
        </mxCell>
        <mxCell id="mFqXMM7ZUw6CE7v1p2I_-96" value="saveOrUpdate&lt;br&gt;&lt;div&gt;Preco()&lt;/div&gt;" style="shape=process;whiteSpace=wrap;html=1;backgroundOutline=1;" vertex="1" parent="1">
          <mxGeometry x="1232" y="630" width="110" height="40" as="geometry" />
        </mxCell>
        <mxCell id="mFqXMM7ZUw6CE7v1p2I_-97" value="" style="edgeStyle=orthogonalEdgeStyle;rounded=0;orthogonalLoop=1;jettySize=auto;html=1;startArrow=classic;startFill=0;endArrow=none;" edge="1" parent="1" source="mFqXMM7ZUw6CE7v1p2I_-98" target="mFqXMM7ZUw6CE7v1p2I_-96">
          <mxGeometry relative="1" as="geometry" />
        </mxCell>
        <mxCell id="mFqXMM7ZUw6CE7v1p2I_-98" value="Consumer()" style="shape=process;whiteSpace=wrap;html=1;backgroundOutline=1;" vertex="1" parent="1">
          <mxGeometry x="1102" y="630" width="110" height="40" as="geometry" />
        </mxCell>
        <mxCell id="mFqXMM7ZUw6CE7v1p2I_-101" style="edgeStyle=orthogonalEdgeStyle;rounded=0;orthogonalLoop=1;jettySize=auto;html=1;flowAnimation=1;" edge="1" parent="1" source="mFqXMM7ZUw6CE7v1p2I_-100">
          <mxGeometry relative="1" as="geometry">
            <mxPoint x="1340" y="590" as="targetPoint" />
          </mxGeometry>
        </mxCell>
        <mxCell id="mFqXMM7ZUw6CE7v1p2I_-103" style="edgeStyle=orthogonalEdgeStyle;rounded=0;orthogonalLoop=1;jettySize=auto;html=1;entryX=1;entryY=0.5;entryDx=0;entryDy=0;flowAnimation=1;" edge="1" parent="1" source="mFqXMM7ZUw6CE7v1p2I_-100" target="mFqXMM7ZUw6CE7v1p2I_-71">
          <mxGeometry relative="1" as="geometry" />
        </mxCell>
        <mxCell id="mFqXMM7ZUw6CE7v1p2I_-104" style="edgeStyle=orthogonalEdgeStyle;rounded=0;orthogonalLoop=1;jettySize=auto;html=1;entryX=1;entryY=0.5;entryDx=0;entryDy=0;flowAnimation=1;" edge="1" parent="1" source="mFqXMM7ZUw6CE7v1p2I_-100" target="mFqXMM7ZUw6CE7v1p2I_-96">
          <mxGeometry relative="1" as="geometry" />
        </mxCell>
        <mxCell id="mFqXMM7ZUw6CE7v1p2I_-100" value="Ator" style="shape=umlActor;verticalLabelPosition=bottom;verticalAlign=top;html=1;outlineConnect=0;" vertex="1" parent="1">
          <mxGeometry x="1471" y="560" width="30" height="60" as="geometry" />
        </mxCell>
        <mxCell id="mFqXMM7ZUw6CE7v1p2I_-105" value="Início A" style="html=1;dashed=0;whiteSpace=wrap;shape=mxgraph.dfd.start" vertex="1" parent="1">
          <mxGeometry x="115" y="190" width="80" height="30" as="geometry" />
        </mxCell>
        <mxCell id="mFqXMM7ZUw6CE7v1p2I_-107" value="Início B" style="html=1;dashed=0;whiteSpace=wrap;shape=mxgraph.dfd.start" vertex="1" parent="1">
          <mxGeometry x="1446" y="700" width="80" height="30" as="geometry" />
        </mxCell>
        <mxCell id="mFqXMM7ZUw6CE7v1p2I_-109" value="Fim B" style="html=1;dashed=0;whiteSpace=wrap;shape=mxgraph.dfd.start" vertex="1" parent="1">
          <mxGeometry x="312" y="402" width="80" height="30" as="geometry" />
        </mxCell>
        <mxCell id="mFqXMM7ZUw6CE7v1p2I_-110" value="Fim A" style="html=1;dashed=0;whiteSpace=wrap;shape=mxgraph.dfd.start" vertex="1" parent="1">
          <mxGeometry x="1112" y="402" width="80" height="30" as="geometry" />
        </mxCell>
        <mxCell id="mFqXMM7ZUw6CE7v1p2I_-111" value="Fluxo Projeto Integração Sistemas (Síncrona)" style="text;html=1;align=center;verticalAlign=middle;whiteSpace=wrap;rounded=0;fontSize=19;" vertex="1" parent="1">
          <mxGeometry x="60" y="34" width="1570" height="30" as="geometry" />
        </mxCell>
        <mxCell id="mFqXMM7ZUw6CE7v1p2I_-113" value="/POST&amp;nbsp;&lt;div&gt;data&lt;/div&gt;" style="edgeLabel;html=1;align=center;verticalAlign=middle;resizable=0;points=[];" connectable="0" vertex="1" parent="1">
          <mxGeometry x="1018.7142857142858" y="566" as="geometry" />
        </mxCell>
        <mxCell id="mFqXMM7ZUw6CE7v1p2I_-114" value="[ADVPL]" style="text;whiteSpace=wrap;html=1;" vertex="1" parent="1">
          <mxGeometry x="510" y="160" width="80" height="40" as="geometry" />
        </mxCell>
        <mxCell id="mFqXMM7ZUw6CE7v1p2I_-115" value="[ADVPL]" style="text;whiteSpace=wrap;html=1;" vertex="1" parent="1">
          <mxGeometry x="507" y="228" width="80" height="40" as="geometry" />
        </mxCell>
        <mxCell id="mFqXMM7ZUw6CE7v1p2I_-116" value="[ADVPL]" style="text;whiteSpace=wrap;html=1;" vertex="1" parent="1">
          <mxGeometry x="507" y="288" width="80" height="40" as="geometry" />
        </mxCell>
        <mxCell id="mFqXMM7ZUw6CE7v1p2I_-118" value="[Apex]" style="text;whiteSpace=wrap;html=1;" vertex="1" parent="1">
          <mxGeometry x="1092" y="160" width="70" height="40" as="geometry" />
        </mxCell>
        <mxCell id="mFqXMM7ZUw6CE7v1p2I_-119" value="[Apex]" style="text;whiteSpace=wrap;html=1;" vertex="1" parent="1">
          <mxGeometry x="1089" y="230" width="70" height="40" as="geometry" />
        </mxCell>
        <mxCell id="mFqXMM7ZUw6CE7v1p2I_-120" value="[Apex]" style="text;whiteSpace=wrap;html=1;" vertex="1" parent="1">
          <mxGeometry x="1089" y="286" width="70" height="40" as="geometry" />
        </mxCell>
      </root>
    </mxGraphModel>
  </diagram>
</mxfile>
